<svg height="597pt" viewBox="-109 -18 597 597.33331" width="597pt" xmlns="http://www.w3.org/2000/svg"><path d="m336.105469 481.910156c26.269531-26.269531 40.027343-62.53125 37.808593-99.609375-2.222656-37.085937-20.210937-71.441406-49.425781-94.390625l-10.101562-7.929687 10.171875-7.863281c4.054687-3.132813 7.910156-6.523438 11.535156-10.148438 37.21875-37.171875 48.359375-93.109375 28.234375-141.710938-20.128906-48.597656-67.558594-80.277343-120.160156-80.257812h-10v-40h-40v40h-60v-40h-40v40h-100v40h40v400h-40v40h100v40h40v-40h60v40h40v-40h10c34.496093.054688 67.585937-13.652344 91.9375-38.089844zm-261.9375-401.910156h170c49.707031 0 90 40.292969 90 90s-40.292969 90-90 90h-170zm0 400v-180h170c49.707031 0 90 40.292969 90 90s-40.292969 90-90 90zm0 0"/></svg>