<svg height="597pt" viewBox="-79 -19 597 597.33335" width="597pt" xmlns="http://www.w3.org/2000/svg"><path d="m216.152344 470.003906c60.75 0 109.996094-49.246094 109.996094-109.992187 0-60.75-49.246094-109.996094-109.996094-109.996094-60.746094 0-109.992188 49.246094-109.992188 109.996094.070313 60.71875 49.273438 109.925781 109.992188 109.992187zm-59.996094-59.996094h20v-99.996093h-20v-19.996094h30v-20h19.996094v20h10v-20h20v20h10c16.566406 0 29.996094 13.429687 29.996094 29.996094v20c-.023438 7.40625-2.804688 14.535156-7.796876 20 4.992188 5.46875 7.773438 12.597656 7.796876 20v19.996093c0 16.566407-13.429688 30-29.996094 30h-10v20h-20v-20h-10v20h-19.996094v-20h-30zm0 0"/><path d="m256.152344 400.007812v-19.996093c0-5.523438-4.480469-10-10-10h-50v39.996093h50c5.519531 0 10-4.476562 10-10zm0 0"/><path d="m256.152344 340.011719v-20c0-5.519531-4.480469-10-10-10h-50v40h50c5.519531 0 10-4.476563 10-10zm0 0"/><path d="m301.148438 20.03125c-16.265626.355469-32.351563-3.414062-46.765626-10.949219-11.738281-6.300781-24.914062-9.421875-38.230468-9.050781-13.3125-.375-26.492188 2.742188-38.226563 9.050781-14.417969 7.539063-30.503906 11.308594-46.769531 10.949219-16.253906.351562-32.335938-3.414062-46.746094-10.949219-6.730468-3.492187-13.910156-6.046875-21.328125-7.601562l49.796875 99.59375 40.847656 7.453125c1.894532.339844 3.78125.578125 5.671876.886718l-22.449219-44.914062c-1.632813-3.203125-1.421875-7.03125.550781-10.027344 1.972656-3.003906 5.398438-4.71875 8.984375-4.492187 3.582031.222656 6.773437 2.351562 8.355469 5.578125l27.097656 54.21875c.375.859375.625 1.765625.726562 2.699218 25.730469 2.464844 51.652344 2.074219 77.296876-1.164062.097656-.519531.238281-1.035156.417968-1.535156l27.308594-54.648438c2.476562-4.941406 8.480469-6.941406 13.421875-4.472656 4.941406 2.472656 6.941406 8.480469 4.46875 13.421875l-21.730469 43.464844 35.589844-6.46875 49.808594-99.59375c-7.433594 1.546875-14.613282 4.105469-21.347656 7.601562-14.414063 7.53125-30.492188 11.292969-46.75 10.949219zm0 0"/><path d="m321.707031 161.023438-27.058593 4.929687c11.371093 12.191406 21.976562 25.078125 31.746093 38.585937 2.226563 2.882813 2.710938 6.746094 1.265625 10.085938-1.445312 3.339844-4.589844 5.632812-8.210937 5.984375-3.625.347656-7.152344-1.296875-9.210938-4.300781-11.867187-16.527344-25.125-32.011719-39.625-46.289063-14.628906 2.175781-29.367187 3.464844-44.148437 3.875l-.3125 26.246094c-.0625 5.472656-4.519532 9.878906-10 9.878906h-.117188c-5.527344-.0625-9.949218-4.59375-9.882812-10.117187l.3125-26c-14.992188-.386719-29.945313-1.679688-44.777344-3.882813-8.035156 8-15.511719 16.542969-22.371094 25.570313-3.363281 4.382812-9.644531 5.203125-14.023437 1.835937-4.378907-3.367187-5.199219-9.648437-1.835938-14.027343 4.859375-6.3125 9.671875-12.117188 14.4375-17.425782l-27.308593-5c-54.765626 53.835938-114.421876 161.160156-114.421876 229.035156 0 81.761719 84.109376 169.992188 219.988282 169.992188 135.882812 0 219.988281-88.230469 219.988281-169.992188 0-67.875-59.664063-175.21875-114.433594-228.984374zm-105.554687 68.996093c71.792968 0 129.992187 58.199219 129.992187 129.992188s-58.199219 129.992187-129.992187 129.992187c-71.792969 0-129.992188-58.199218-129.992188-129.992187.082032-71.757813 58.234375-129.910157 129.992188-129.992188zm-111.425782 272.546875c-2.839843 4.730469-8.980468 6.269532-13.71875 3.429688-3.949218-2.371094-7.792968-4.851563-11.515624-7.441406-4.539063-3.152344-5.660157-9.378907-2.511719-13.921876 3.148437-4.535156 9.382812-5.660156 13.921875-2.507812 3.371094 2.34375 6.839844 4.578125 10.398437 6.722656 4.734375 2.839844 6.269531 8.984375 3.425781 13.71875zm247.792969-3.8125c-40.355469 26.980469-87.824219 41.339844-136.367187 41.246094-32.140625-.085938-63.96875-6.335938-93.765625-18.40625-5.03125-2.128906-7.417969-7.90625-5.363281-12.96875 2.050781-5.0625 7.792968-7.539062 12.882812-5.558594 27.402344 11.101563 56.683594 16.851563 86.246094 16.9375 44.480468.121094 87.992187-12.992187 124.992187-37.679687 4.539063-2.953125 10.597657-1.769531 13.683594 2.679687 3.078125 4.449219 2.0625 10.542969-2.289063 13.75zm0 0"/><path d="m216.152344 134.113281c-15.34375-.023437-30.679688-1-45.90625-2.929687-1.25-.148438-2.488282-.246094-3.738282-.417969-5.503906-.742187-10.996093-1.605469-16.480468-2.601563l-1.179688-.230468-32.6875-5.90625v19.65625l37.398438 6.820312c20.785156 3.765625 41.867187 5.648438 62.996094 5.628906h.285156c20.796875-.039062 41.542968-1.917968 62-5.621093l37.308594-6.847657v-19.636718l-33.636719 6.125c-21.898438 3.960937-44.105469 5.953125-66.359375 5.960937zm0 0"/></svg>