<?xml version="1.0" encoding="iso-8859-1"?>
<!-- Generator: Adobe Illustrator 21.0.0, SVG Export Plug-In . SVG Version: 6.00 Build 0)  -->
<svg xmlns="http://www.w3.org/2000/svg" xmlns:xlink="http://www.w3.org/1999/xlink" version="1.1" id="Capa_1" x="0px" y="0px" viewBox="0 0 512 512" style="enable-background:new 0 0 512 512;" xml:space="preserve" width="512" height="512">
<g>
	<path d="M220.482,188.885h106.184c8.284,0,15-6.716,15-15s-6.716-15-15-15h-55.941v-36.889c0-8.284-6.716-15-15-15s-15,6.716-15,15   v36.889h-20.243c-30.457,0-55.235,24.778-55.235,55.234c0,30.457,24.778,55.235,55.235,55.235h65.95   c13.914,0,25.234,11.32,25.234,25.235s-11.32,25.235-25.234,25.235H180.247c-8.284,0-15,6.716-15,15s6.716,15,15,15h60.478v37.039   c0,8.284,6.716,15,15,15s15-6.716,15-15v-37.039h15.707c30.456,0,55.234-24.778,55.234-55.235s-24.778-55.235-55.234-55.235h-65.95   c-13.915,0-25.235-11.32-25.235-25.235C195.247,200.205,206.567,188.885,220.482,188.885z"/>
	<path d="M437.02,74.98C388.667,26.629,324.38,0,256,0S123.333,26.629,74.98,74.98C26.629,123.333,0,187.62,0,256   s26.629,132.667,74.98,181.02C123.333,485.371,187.62,512,256,512s132.667-26.629,181.02-74.98C485.371,388.667,512,324.38,512,256   S485.371,123.333,437.02,74.98z M415.806,415.806C373.12,458.492,316.367,482,256,482c-60.367,0-117.12-23.508-159.806-66.194   C53.508,373.12,30,316.367,30,256S53.508,138.88,96.194,96.194C138.88,53.508,195.633,30,256,30   c60.367,0,117.12,23.508,159.806,66.194C458.492,138.88,482,195.633,482,256S458.492,373.12,415.806,415.806z"/>
	<path d="M255.609,52.849c-111.111,0-201.506,90.396-201.506,201.506c0,111.111,90.396,201.507,201.506,201.507   c111.111,0,201.507-90.396,201.507-201.507C457.116,143.244,366.721,52.849,255.609,52.849z M255.609,425.861   c-94.569,0-171.506-76.938-171.506-171.507c0-94.568,76.938-171.506,171.506-171.506c94.569,0,171.507,76.938,171.507,171.506   C427.116,348.924,350.179,425.861,255.609,425.861z"/>
</g>















</svg>
